HIERARCHY
ROOT hip
{
	OFFSET 0.000000 0.000000 0.000000 
	CHANNELS 6 Xposition Yposition Zposition Xrotation Zrotation Yrotation
	JOINT abdomen
	{
		OFFSET 0.000000 3.402643 0.000000 
		CHANNELS 3 Xrotation Zrotation Yrotation
		JOINT chest
		{
			OFFSET 0.000000 8.438565 -0.680529 
			CHANNELS 3 Xrotation Zrotation Yrotation
			JOINT neck
			{
				OFFSET 0.000000 10.207942 -0.272212 
				CHANNELS 3 Xrotation Zrotation Yrotation
				JOINT head
				{
					OFFSET 0.000000 3.130431 0.000000 
					CHANNELS 3 Xrotation Zrotation Yrotation
					End Site
					{
						OFFSET 0.000000 3.130435 0.000000 
					}
				}
			}
			JOINT lCollar
			{
				OFFSET 3.470700 6.669187 -0.816635 
				CHANNELS 3 Yrotation Zrotation Xrotation
				JOINT lShldr
				{
					OFFSET 3.198488 0.000000 0.000000 
					CHANNELS 3 Zrotation Yrotation Xrotation
					JOINT lForeArm
					{
						OFFSET 10.139888 0.000000 0.000000 
						CHANNELS 3 Yrotation Zrotation Xrotation
						JOINT lHand
						{
							OFFSET 8.370511 0.000000 0.000000 
							CHANNELS 3 Zrotation Yrotation Xrotation
							End Site
							{
								OFFSET 4.083176 0.000000 0.000000 
							}
						}
					}
				}
			}
			JOINT rCollar
			{
				OFFSET -3.470700 6.669187 -0.816635 
				CHANNELS 3 Yrotation Zrotation Xrotation
				JOINT rShldr
				{
					OFFSET -3.198488 0.000000 0.000000 
					CHANNELS 3 Zrotation Yrotation Xrotation
					JOINT rForeArm
					{
						OFFSET -10.139888 0.000000 0.000000 
						CHANNELS 3 Yrotation Zrotation Xrotation
						JOINT rHand
						{
							OFFSET -8.370511 0.000000 0.000000 
							CHANNELS 3 Zrotation Yrotation Xrotation
							End Site
							{
								OFFSET -4.083176 0.000000 0.000000 
							}
						}
					}
				}
			}
		}
	}
	JOINT lThigh
	{
		OFFSET 5.308129 -1.633274 1.361059 
		CHANNELS 3 Xrotation Zrotation Yrotation
		JOINT lShin
		{
			OFFSET -2.041588 -20.007561 0.000000 
			CHANNELS 3 Xrotation Zrotation Yrotation
			JOINT lFoot
			{
				OFFSET 0.000000 -19.190928 -1.224953 
				CHANNELS 3 Xrotation Yrotation Zrotation
				End Site
				{
					OFFSET 0.000000 -2.449906 4.627600 
				}
			}
		}
	}
	JOINT rThigh
	{
		OFFSET -5.308129 -1.633274 1.361059 
		CHANNELS 3 Xrotation Zrotation Yrotation
		JOINT rShin
		{
			OFFSET 2.041588 -20.007561 0.000000 
			CHANNELS 3 Xrotation Zrotation Yrotation
			JOINT rFoot
			{
				OFFSET 0.000000 -19.190928 -1.224953 
				CHANNELS 3 Xrotation Yrotation Zrotation
				End Site
				{
					OFFSET 0.000000 -2.449906 4.627600 
				}
			}
		}
	}
}
MOTION
Frames: 9
Frame Time: 0.033333
-1.426333 52.774288 1.854176 12.490234 -3.095703 -93.877480 29.099344 -15.778980 -11.044383 -20.937500 6.220703 -0.742188 51.063168 8.107644 2.471410 -46.416016 7.714844 -17.576817 2.000000 -2.000000 0.000000 -56.494141 -12.255858 -35.068356 -68.846794 -0.905396 -2.662573 33.024563 56.049747 11.223559 -2.000000 2.000000 0.000000 74.716797 -53.320313 -9.177754 74.798347 0.982686 -2.814863 -27.462658 -63.143089 37.455608 0.060569 17.238733 -12.556782 22.517935 -4.830387 -2.356662 -14.476704 1.429198 -2.092974 0.222888 -2.133405 -29.951090 38.540680 3.956796 3.174973 7.591465 -14.099902 5.169913 
-0.783880 52.987003 2.004920 11.777344 -1.894531 -93.760094 29.760660 -16.163383 -10.385307 -21.132814 5.878906 -0.449219 51.063168 8.107644 2.471410 -49.658203 7.109375 -18.349609 2.000000 -2.000000 0.000000 -59.248047 -3.183594 -36.846252 -68.841431 -0.874574 -2.468799 35.324333 57.999760 10.988831 -2.000000 2.000000 0.000000 72.285156 -53.857422 -8.632813 74.619713 0.820481 -2.716684 -27.853834 -63.634323 37.906826 -1.551511 16.589422 -12.733981 21.799940 -4.819634 -2.305701 -12.336219 1.124198 -1.944602 0.690474 -1.712133 -32.403347 35.539120 4.135589 2.659980 11.302252 -10.580396 6.624750 
-0.031897 53.073662 2.199072 11.054688 -0.693359 -93.847778 30.398447 -16.310097 -9.771782 -21.318361 5.703125 -0.332031 51.063168 8.107644 2.471410 -52.705078 7.001954 -19.443359 2.000000 -2.000000 0.000000 -63.027340 5.234375 -37.977623 -68.492401 -0.763536 -2.915412 37.525940 59.668232 11.498344 -2.000000 2.000000 0.000000 73.652351 -53.310547 -12.507831 74.619720 0.810732 -2.717248 -28.488441 -64.103889 38.257267 -3.463541 15.852649 -12.804291 21.607145 -4.833757 -2.282328 -10.555117 1.180412 -2.291546 0.790502 -1.308032 -32.748760 31.154730 4.447847 2.264403 20.581366 -6.887189 10.013092 
0.670983 53.050022 2.428632 10.361329 0.507813 -93.974533 31.048882 -16.594810 -9.267819 -21.513674 5.361329 -0.048828 51.063168 8.107644 2.471410 -55.898438 6.884765 -20.654295 2.000000 -2.000000 0.000000 -68.808594 11.142577 -39.960938 -67.448914 -0.951313 -2.611010 37.214840 60.743504 11.268570 -2.000000 2.000000 0.000000 75.585938 -52.255863 -17.029209 74.446770 0.992436 -2.814299 -29.646296 -64.443703 38.551723 -5.572540 14.799905 -13.376017 21.607906 -4.830164 -2.281710 -9.864796 1.358493 -2.034896 1.929433 0.238409 -32.481903 26.201775 4.573937 2.161866 11.686666 -8.629838 10.908093 
1.052968 52.868828 2.574714 9.492188 1.904297 -94.071945 31.664494 -16.821484 -8.499578 -21.679688 5.195313 0.263672 51.063168 8.107644 2.471410 -58.925785 6.923828 -21.904295 2.000000 -2.000000 0.000000 -76.123047 16.679688 -42.008919 -65.683380 -0.856888 -2.332784 37.964474 61.203556 12.507900 -2.000000 2.000000 0.000000 78.466797 -50.878910 -22.029060 74.277367 0.829099 -2.696629 -29.981314 -64.376114 37.930893 -6.469340 14.124179 -13.262834 19.491236 -4.716816 -2.255772 -11.141807 1.681581 -2.529993 3.128188 1.941654 -30.945744 20.267405 5.012881 1.743793 5.337831 -11.278555 12.222169 
1.739778 52.656116 2.821399 8.447267 3.125000 -94.276810 32.129074 -16.903704 -8.004641 -21.865234 4.863282 0.381687 51.063168 8.107644 2.471410 -61.933594 6.943358 -23.115236 2.000000 -2.000000 0.000000 -83.232422 21.542971 -44.400711 -64.458641 -1.054591 -2.536553 37.201897 61.997021 12.561006 -2.000000 2.000000 0.000000 80.410156 -49.150391 -24.987854 74.443672 0.810166 -2.707503 -30.299238 -64.308075 37.545822 -8.834829 13.112606 -13.623771 19.848370 -4.891920 -2.137185 -11.840384 2.070163 -2.406019 3.660828 2.918245 -29.281174 14.618190 5.167986 1.300193 1.364507 -13.333204 12.546773 
2.440492 52.451286 3.078234 7.568360 4.511719 -94.501183 32.573284 -17.065514 -7.352015 -22.226563 4.677734 0.673828 51.063168 8.107644 2.471410 -64.589851 6.914062 -24.111328 2.000000 -2.000000 0.000000 -90.048828 24.873045 -46.923832 -62.699150 -1.109688 -2.474677 36.128922 62.318695 12.286775 -2.000000 2.000000 0.000000 82.460938 -47.031250 -26.328121 74.795517 0.791233 -2.718376 -29.409288 -63.927006 36.163868 -11.122149 11.893997 -13.890213 20.367743 -4.706697 -2.296104 -12.563858 2.396634 -2.722182 3.562830 3.473688 -27.647943 10.194052 5.302086 0.890636 -0.927838 -15.108749 13.392243 
2.879120 52.317371 2.985649 6.533203 5.751953 -94.784172 32.857834 -17.066513 -6.987406 -22.412109 4.511719 0.810547 51.063168 8.107644 2.471410 -67.080078 6.875000 -24.892580 2.000000 -2.000000 0.000000 -95.878906 25.478516 -50.005562 -60.946781 -1.344912 -2.314088 34.178638 62.227428 10.619539 -2.000000 2.000000 0.000000 84.316406 -45.244141 -26.406248 75.498932 0.772300 -2.729249 -29.106178 -63.183247 35.541428 -13.479116 10.494853 -13.919799 20.721270 -4.687752 -2.360385 -13.114857 2.888588 -2.701568 2.420277 3.205756 -26.307140 7.898293 5.713740 0.425247 -2.518710 -16.437891 13.402212 
3.584314 52.199196 3.182462 5.478515 6.972656 -95.302734 33.160442 -17.061928 -6.610223 -22.587891 4.521484 0.976563 51.063168 8.107644 2.471410 -69.033203 6.806640 -25.585938 2.000000 -2.000000 0.000000 -100.976563 24.560547 -52.163910 -59.022930 -1.540462 -2.312458 31.542858 61.656425 8.338552 -2.000000 2.000000 0.000000 86.123047 -43.037109 -25.585936 76.192856 0.744183 -2.750432 -28.219418 -62.206646 34.142372 -15.509951 9.636204 -14.140966 20.222578 -5.058582 -2.165147 -12.836479 3.138443 -3.407202 -0.688433 1.692002 -26.274981 10.690465 5.479306 0.809763 -5.137365 -16.327185 13.403381 
